{
    "asset" : {
        "generator" : "Khronos glTF Blender I/O v3.2.43",
        "version" : "2.0"
    },
    "scene" : 0,
    "scenes" : [
        {
            "name" : "Scene",
            "nodes" : [
                0
            ]
        }
    ],
    "nodes" : [
        {
            "mesh" : 0,
            "name" : "Circle"
        }
    ],
    "materials" : [
        {
            "doubleSided" : true,
            "name" : "Material.003",
            "pbrMetallicRoughness" : {
                "baseColorFactor" : [
                    0.8000000715255737,
                    0.12895138561725616,
                    0.009325449354946613,
                    1
                ],
                "metallicFactor" : 0.3571428656578064,
                "roughnessFactor" : 0.5
            }
        }
    ],
    "meshes" : [
        {
            "name" : "Circle",
            "primitives" : [
                {
                    "attributes" : {
                        "POSITION" : 0,
                        "NORMAL" : 1,
                        "TEXCOORD_0" : 2
                    },
                    "indices" : 3,
                    "material" : 0
                }
            ]
        }
    ],
    "accessors" : [
        {
            "bufferView" : 0,
            "componentType" : 5126,
            "count" : 2427,
            "max" : [
                1.1104397773742676,
                0.6511299014091492,
                1.1104397773742676
            ],
            "min" : [
                -1.1104397773742676,
                0,
                -1.1104397773742676
            ],
            "type" : "VEC3"
        },
        {
            "bufferView" : 1,
            "componentType" : 5126,
            "count" : 2427,
            "type" : "VEC3"
        },
        {
            "bufferView" : 2,
            "componentType" : 5126,
            "count" : 2427,
            "type" : "VEC2"
        },
        {
            "bufferView" : 3,
            "componentType" : 5123,
            "count" : 4236,
            "type" : "SCALAR"
        }
    ],
    "bufferViews" : [
        {
            "buffer" : 0,
            "byteLength" : 29124,
            "byteOffset" : 0
        },
        {
            "buffer" : 0,
            "byteLength" : 29124,
            "byteOffset" : 29124
        },
        {
            "buffer" : 0,
            "byteLength" : 19416,
            "byteOffset" : 58248
        },
        {
            "buffer" : 0,
            "byteLength" : 8472,
            "byteOffset" : 77664
        }
    ],
    "buffers" : [
        {
            "byteLength" : 86136,
            "uri" : "data:application/octet-stream;base64,"
        }
    ]
}
